<svg xmlns="http://www.w3.org/2000/svg" xmlns:xlink="http://www.w3.org/1999/xlink" width="256" height="256"><defs><path id="b" d="M83.97 25h88.06c20.5 0 27.94 2.13 35.44 6.14 7.5 4.01 13.38 9.9 17.39 17.4 4 7.49 6.14 14.92 6.14 35.43v88.06c0 20.5-2.13 27.94-6.14 35.44a41.8 41.8 0 0 1-17.4 17.39c-7.49 4-14.92 6.14-35.43 6.14H83.97c-20.5 0-27.94-2.13-35.44-6.14a41.8 41.8 0 0 1-17.39-17.4c-4-7.49-6.14-14.92-6.14-35.43V83.97c0-20.5 2.13-27.94 6.14-35.44 4.01-7.5 9.9-13.38 17.4-17.39 7.49-4 14.92-6.14 35.43-6.14Z"/><path id="d" d="M59.61 0h86.78c20.73 0 28.24 2.16 35.82 6.21A42.25 42.25 0 0 1 199.8 23.8c4.05 7.58 6.21 15.1 6.21 35.82v86.78c0 20.73-2.16 28.24-6.21 35.82a42.25 42.25 0 0 1-17.58 17.58c-7.58 4.05-15.1 6.21-35.82 6.21H59.61c-20.73 0-28.24-2.16-35.82-6.21A42.25 42.25 0 0 1 6.2 182.2C2.16 174.63 0 167.11 0 146.4V59.61c0-20.73 2.16-28.24 6.21-35.82A42.25 42.25 0 0 1 23.8 6.2C31.37 2.16 38.89 0 59.6 0Z"/><path id="i" d="M56.4 12.5h93.2c15.26 0 20.8 1.59 26.38 4.57a31.12 31.12 0 0 1 12.95 12.95c2.98 5.58 4.57 11.12 4.57 26.39v93.68c0 15.27-1.59 20.8-4.57 26.39a31.12 31.12 0 0 1-12.95 12.95c-5.58 2.98-11.12 4.57-26.39 4.57H56.41c-15.27 0-20.8-1.59-26.39-4.57a31.12 31.12 0 0 1-12.95-12.95c-2.98-5.58-4.57-11.12-4.57-26.39V56.41c0-15.27 1.59-20.8 4.57-26.39a31.12 31.12 0 0 1 12.95-12.95c5.58-2.98 11.12-4.57 26.39-4.57Z"/><path id="k" d="M56.4 12.5h93.2c15.26 0 20.8 1.59 26.38 4.57a31.12 31.12 0 0 1 12.95 12.95c2.98 5.58 4.57 11.12 4.57 26.39v93.68c0 15.27-1.59 20.8-4.57 26.39a31.12 31.12 0 0 1-12.95 12.95c-5.58 2.98-11.12 4.57-26.39 4.57H56.41c-15.27 0-20.8-1.59-26.39-4.57a31.12 31.12 0 0 1-12.95-12.95c-2.98-5.58-4.57-11.12-4.57-26.39V56.41c0-15.27 1.59-20.8 4.57-26.39a31.12 31.12 0 0 1 12.95-12.95c5.58-2.98 11.12-4.57 26.39-4.57Z"/><path id="n" d="M27.5 0h91a27.5 27.5 0 1 1 0 55h-91a27.5 27.5 0 0 1 0-55Z"/><linearGradient id="e" x1="50%" x2="50%" y1="13.92%" y2="75.9%"><stop offset="0%" stop-color="#7C6FAB"/><stop offset="100%" stop-color="#645A8A"/></linearGradient><linearGradient id="g" x1="50%" x2="50%" y1="0%" y2="100%"><stop offset="0%" stop-color="#645A8A"/><stop offset="100%" stop-color="#7C6FAB"/></linearGradient><linearGradient id="j" x1="50%" x2="50%" y1="0%" y2="100%"><stop offset="0%" stop-color="#887ABA"/><stop offset="100%" stop-color="#574D78"/></linearGradient><linearGradient id="o" x1="50%" x2="50%" y1="0%" y2="100%"><stop offset="0%" stop-color="#FFF" stop-opacity=".5"/><stop offset="100%" stop-opacity=".5"/></linearGradient><filter id="h" width="106.1%" height="106.1%" x="-3%" y="-3%" filterUnits="objectBoundingBox"><feMorphology in="SourceAlpha" radius="1" result="shadowSpreadInner1"/><feGaussianBlur in="shadowSpreadInner1" result="shadowBlurInner1" stdDeviation="4"/><feOffset in="shadowBlurInner1" result="shadowOffsetInner1"/><feComposite in="shadowOffsetInner1" in2="SourceAlpha" k2="-1" k3="1" operator="arithmetic" result="shadowInnerInner1"/><feColorMatrix in="shadowInnerInner1" values="0 0 0 0 0.354710744 0 0 0 0 0.287603306 0 0 0 0 0.58 0 0 0 1 0"/></filter><filter id="l" width="103.9%" height="103.9%" x="-1.9%" y="-1.9%" filterUnits="objectBoundingBox"><feMorphology in="SourceAlpha" radius="2" result="shadowSpreadInner1"/><feGaussianBlur in="shadowSpreadInner1" result="shadowBlurInner1" stdDeviation="2.5"/><feOffset in="shadowBlurInner1" result="shadowOffsetInner1"/><feComposite in="shadowOffsetInner1" in2="SourceAlpha" k2="-1" k3="1" operator="arithmetic" result="shadowInnerInner1"/><feColorMatrix in="shadowInnerInner1" values="0 0 0 0 0.354710744 0 0 0 0 0.287603306 0 0 0 0 0.58 0 0 0 1 0"/></filter><pattern id="f" width="100%" height="100%" x="0%" patternUnits="objectBoundingBox"><use xlink:href="#a" transform="scale(.40234)"/></pattern></defs><g fill="none" fill-rule="evenodd"><mask id="c" fill="#fff"><use xlink:href="#b"/></mask><use xlink:href="#b" fill="#FFF"/><g mask="url(#c)"><g transform="translate(25 25)"><path fill="#D0E7FF" d="M0 0h206v206H0z"/><use xlink:href="#d" fill="#A088F2"/><path fill="url(#f)" fill-opacity=".02" stroke="url(#e)" stroke-linejoin="square" stroke-width="12.5" d="M147.03 6.25c18.48.04 25.36 1.8 32.23 5.47a36.09 36.09 0 0 1 15.02 15.02c3.72 6.95 5.47 13.91 5.47 32.87v86.78c0 18.96-1.75 25.92-5.47 32.87a36.09 36.09 0 0 1-15.02 15.02c-6.95 3.72-13.91 5.47-32.87 5.47H59.61c-18.96 0-25.92-1.75-32.87-5.47a36.09 36.09 0 0 1-15.02-15.02c-3.67-6.87-5.43-13.74-5.47-32.21V58.97c.04-18.48 1.8-25.36 5.47-32.23a36.09 36.09 0 0 1 15.02-15.02C33.6 8.05 40.48 6.3 58.95 6.25Z"/><path stroke="url(#g)" stroke-linejoin="square" d="M147.05.5c20.09.05 27.48 2.17 34.93 6.15 7.49 4 13.36 9.88 17.37 17.37 4.02 7.53 6.15 15 6.15 35.59v86.78c0 20.59-2.13 28.06-6.15 35.59a41.76 41.76 0 0 1-17.37 17.37c-7.53 4.02-15 6.15-35.59 6.15H59.61c-20.59 0-28.06-2.13-35.59-6.15a41.76 41.76 0 0 1-17.37-17.37C2.67 174.53.55 167.14.5 147.05v-88.1c.05-20.09 2.17-27.48 6.15-34.93 4-7.49 9.88-13.36 17.37-17.37C31.47 2.67 38.86.55 58.95.5Z"/><use xlink:href="#i" fill="#000" filter="url(#h)"/><path stroke="url(#j)" d="M150.2 12c13.74.04 19.5 1.41 24.66 3.94l.45.22.9.47a31.61 31.61 0 0 1 13.63 14.06l.22.45c2.57 5.23 3.94 11.09 3.94 25.27v93.68c0 14.18-1.37 20.04-3.94 25.27l-.22.45-.47.9a31.61 31.61 0 0 1-14.06 13.63l-.45.22c-5.23 2.57-11.09 3.94-25.27 3.94H56.41c-14.18 0-20.04-1.37-25.27-3.94l-.45-.22-.9-.47a31.61 31.61 0 0 1-13.16-13.16c-2.97-5.55-4.59-11.06-4.63-26V55.8c.04-13.74 1.41-19.5 3.94-24.66l.22-.45.47-.9A31.61 31.61 0 0 1 29.8 16.63c5.55-2.97 11.06-4.59 26-4.63Z"/><mask id="m" fill="#fff"><use xlink:href="#k"/></mask><use xlink:href="#k" fill="#000" filter="url(#l)"/><g mask="url(#m)" opacity=".02" style="mix-blend-mode:screen"><path fill="#FFF" d="m103.34-69.77 8.3 8.3-173.23 173.25-8.31-8.31zM119.84-53.28l8.3 8.31L-45.1 128.27l-8.3-8.3zM136.1-37.02l8.3 8.3-173.24 173.25-8.3-8.3zM152.59-20.52l8.3 8.3-173.23 173.25-8.31-8.31zM168.84-4.27l8.3 8.3L3.92 177.29l-8.31-8.31zM185.34 12.23l8.31 8.3L20.41 193.79l-8.3-8.3zM201.84 28.47l8.3 8.31L36.92 210.02l-8.31-8.3zM218.09 44.72l8.3 8.31L53.17 226.27l-8.31-8.3zM234.6 61.23l8.3 8.3L69.66 242.78l-8.3-8.31zM250.84 77.48l8.31 8.3L85.91 259.03l-8.31-8.31zM267.34 93.97l8.3 8.31-173.23 173.24-8.31-8.3z"/><path fill="#000" d="m111.6-61.78 8.3 8.31-173.24 173.24-8.31-8.3zM128.1-45.27l8.3 8.3-173.24 173.25-8.3-8.31zM144.84-28.53l8.3 8.31-173.23 173.24-8.31-8.3zM161.09-12.28l8.3 8.31L-3.83 169.27l-8.31-8.3zM177.34 4.23l8.3 8.3L12.42 185.78l-8.31-8.31zM193.34 20.23l8.3 8.3L28.42 201.79l-8.31-8.31zM209.59 36.48l8.3 8.3L44.67 218.04l-8.31-8.31zM226.09 52.97l8.3 8.31L61.15 234.52l-8.3-8.3zM242.59 69.48l8.3 8.3L77.67 251.04l-8.31-8.31zM259.34 86.23l8.3 8.3L94.42 267.79l-8.31-8.3z"/></g><g mask="url(#m)"><g transform="translate(31.25 75.5)"><use xlink:href="#n" fill="#71E171"/><use xlink:href="#n" fill="url(#o)" fill-opacity=".2" stroke="#7BF57B" stroke-width=".5"/><path stroke="#4A944A" stroke-width=".5" d="M118.5-.25c7.66 0 14.6 3.1 19.62 8.13a27.66 27.66 0 0 1 8.13 19.62c0 7.66-3.1 14.6-8.13 19.62a27.66 27.66 0 0 1-19.62 8.13h-91c-7.66 0-14.6-3.1-19.62-8.13A27.66 27.66 0 0 1-.25 27.5c0-7.66 3.1-14.6 8.13-19.62A27.66 27.66 0 0 1 27.5-.25h91Z"/></g><text fill-rule="nonzero" font-family="SFMono-Bold, SF Mono" font-size="43.25" font-weight="bold" letter-spacing="4.89" transform="translate(31.25 75.5)">
                                    <tspan x="8.5" y="42.25" fill="#3C325C">•••2</tspan>
                                </text></g></g></g></g></svg>